<svg width="25" height="25" viewBox="0 0 25 25" fill="none" xmlns="http://www.w3.org/2000/svg">
<path d="M12.5 6.25C9.05 6.25 6.25 9.05 6.25 12.5C6.25 15.95 9.05 18.75 12.5 18.75C15.95 18.75 18.75 15.95 18.75 12.5C18.75 9.05 15.95 6.25 12.5 6.25ZM12.5 0C5.6 0 0 5.6 0 12.5C0 19.4 5.6 25 12.5 25C19.4 25 25 19.4 25 12.5C25 5.6 19.4 0 12.5 0ZM12.5 22.5C6.975 22.5 2.5 18.025 2.5 12.5C2.5 6.975 6.975 2.5 12.5 2.5C18.025 2.5 22.5 6.975 22.5 12.5C22.5 18.025 18.025 22.5 12.5 22.5Z" fill="#268441"/>
</svg>
